<?xml version="1.0" standalone="no"?>
<!DOCTYPE svg PUBLIC "-//W3C//DTD SVG 20010904//EN"
 "http://www.w3.org/TR/2001/REC-SVG-20010904/DTD/svg10.dtd">
<svg version="1.0" xmlns="http://www.w3.org/2000/svg"
 width="780.000000pt" height="780.000000pt" viewBox="0 0 780.000000 780.000000"
 preserveAspectRatio="xMidYMid meet">
<metadata>
Created by potrace 1.14, written by Peter Selinger 2001-2017
</metadata>
<g transform="translate(0.000000,780.000000) scale(0.100000,-0.100000)"
fill="#000000" stroke="none">
<path d="M0 3900 l0 -3900 3900 0 3900 0 0 3900 0 3900 -3900 0 -3900 0 0
-3900z m4522 3333 c20 -18 23 -45 8 -74 -12 -22 -68 -27 -88 -7 -20 20 -14 65
10 82 29 20 47 20 70 -1z m-974 -69 c29 -32 28 -59 -3 -89 -61 -62 -155 10
-114 86 23 44 78 45 117 3z m484 -59 c155 -104 284 -259 384 -460 75 -152 103
-268 111 -460 13 -331 -42 -540 -207 -784 -78 -117 -178 -233 -192 -225 -6 4
-8 3 -5 -3 4 -6 -11 -26 -33 -46 -22 -19 -40 -32 -40 -27 0 13 -29 20 -36 8
-4 -6 -3 -8 4 -4 12 7 10 -20 -3 -31 -4 -4 -5 -3 -1 4 3 6 1 15 -5 18 -5 4 -8
12 -6 19 2 6 1 21 -4 34 -7 19 -12 21 -28 13 -14 -8 -22 -7 -32 5 -11 14 -10
18 4 29 15 11 16 13 2 19 -9 3 -15 0 -15 -9 0 -27 -20 -15 -21 13 -1 22 -2 24
-7 7 -6 -17 -13 -19 -42 -14 -27 5 -29 7 -10 8 18 1 26 7 27 21 1 12 -4 20
-13 20 -8 0 -13 -4 -10 -9 3 -5 0 -11 -8 -14 -10 -4 -12 1 -9 16 5 18 3 20 -8
10 -7 -7 -27 -13 -44 -12 -25 0 -27 2 -10 8 11 5 26 6 33 4 6 -3 12 0 12 6 0
6 -3 10 -7 10 -34 -6 -52 2 -48 22 3 16 1 18 -9 10 -19 -16 -46 -3 -46 21 0
10 5 16 10 13 6 -3 10 -1 10 4 0 15 -8 14 -38 -7 -46 -32 -52 -34 -46 -18 3 9
10 16 14 16 4 0 11 7 14 16 5 14 4 15 -8 5 -30 -25 -9 38 29 86 35 44 33 44
-19 -11 -38 -39 -53 -61 -46 -66 9 -5 9 -9 1 -14 -6 -4 -11 -2 -11 5 0 28 -64
-50 -98 -120 l-37 -75 -3 -433 c-2 -238 -4 -433 -6 -433 -1 0 -38 20 -82 45
-43 25 -82 45 -86 45 -5 0 -8 176 -8 390 0 431 6 490 60 608 48 103 94 163
256 334 172 180 257 297 294 403 l25 70 3 478 c2 366 6 477 15 477 7 0 42 -20
79 -45z m967 -8 c44 -29 81 -96 81 -147 0 -85 -76 -168 -163 -177 -88 -10
-176 64 -185 157 -6 63 2 91 35 131 60 71 156 86 232 36z m-2381 -109 c7 -7
12 -24 12 -38 0 -33 -17 -50 -49 -50 -28 0 -61 26 -61 48 0 41 69 69 98 40z
m3255 -63 c96 -25 169 -68 231 -136 31 -34 56 -65 56 -68 0 -3 -37 -6 -82 -6
-46 0 -110 -6 -143 -13 -33 -7 -90 -14 -128 -16 -37 -1 -72 -7 -78 -13 -7 -7
33 -37 126 -98 74 -48 135 -91 135 -94 0 -21 -43 -58 -123 -106 -51 -30 -119
-72 -152 -95 -33 -22 -65 -40 -71 -40 -28 0 -35 32 -39 180 -2 84 -8 157 -13
162 -6 6 -61 8 -131 6 -67 -1 -117 -2 -112 0 6 2 7 10 4 18 -5 13 -7 13 -14 2
-21 -33 -7 21 21 81 35 74 122 164 191 198 104 51 219 65 322 38z m-2780 -95
c50 -56 28 -141 -42 -160 -51 -13 -85 0 -111 42 -24 40 -25 59 -5 98 33 65
108 74 158 20z m2234 -262 c-3 -8 -6 -5 -6 6 -1 11 2 17 5 13 3 -3 4 -12 1
-19z m-2669 -13 c53 -16 153 -87 151 -108 0 -9 -2 -9 -6 1 -7 18 -24 15 -21
-5 2 -14 -6 -18 -47 -20 -27 -2 -68 -8 -90 -13 -23 -5 -97 -10 -165 -11 -69
-2 -137 -6 -152 -10 -19 -5 -28 -4 -28 4 0 7 -12 -6 -26 -28 -24 -38 -25 -39
-19 -10 8 40 67 125 107 155 78 58 193 75 296 45z m772 -77 c46 -24 74 -61 85
-113 l7 -30 -14 25 c-17 31 -45 37 -171 39 l-98 1 -14 -32 c-8 -18 -14 -26
-14 -18 -1 30 37 97 65 117 53 38 95 41 154 11z m-1518 -5 c24 -29 28 -49 12
-72 -27 -38 -104 -19 -104 25 0 19 45 64 63 64 8 0 21 -8 29 -17z m3078 -13
c23 -23 26 -68 8 -93 -7 -9 -27 -19 -43 -23 -43 -8 -78 22 -78 66 0 61 71 92
113 50z m-3011 -365 c55 -28 64 -102 19 -145 -21 -19 -34 -20 -294 -20 l-272
0 -26 31 c-35 42 -33 74 8 115 l34 34 251 0 c201 0 258 -3 280 -15z m4662
-151 c29 -14 68 -80 69 -113 0 -30 -41 -97 -69 -114 -16 -9 -49 -17 -75 -17
-127 0 -173 173 -63 240 39 24 97 26 138 4z m-5501 -94 c11 -11 20 -27 20 -35
0 -20 -36 -55 -56 -55 -50 0 -72 54 -37 92 21 24 48 23 73 -2z m2186 -179
c-114 -141 -179 -273 -206 -416 -7 -34 -14 -219 -17 -430 l-5 -370 -131 3
c-144 3 -210 -5 -344 -44 -310 -90 -582 -326 -724 -630 -22 -45 -39 -87 -39
-94 0 -6 -5 -8 -12 -4 -7 4 -8 3 -4 -5 4 -6 5 -25 1 -41 l-7 -30 -88 0 -88 0
-8 68 c-12 99 -9 315 5 407 41 262 161 570 309 790 243 363 631 661 1035 795
141 46 279 78 344 79 l43 1 -64 -79z m-1622 -7 c33 -34 37 -103 6 -134 -27
-27 -57 -33 -151 -28 -74 3 -83 6 -105 31 -36 42 -33 98 7 131 28 24 38 26
123 26 87 0 95 -2 120 -26z m-565 -155 c38 -13 51 -35 51 -84 0 -25 -8 -43
-25 -60 -23 -24 -28 -25 -173 -25 -148 0 -150 0 -176 26 -37 37 -35 86 3 125
l29 29 130 0 c71 0 143 -5 161 -11z m3524 -20 c401 -202 816 -680 955 -1102
41 -122 75 -285 87 -408 l6 -65 77 12 c95 16 279 18 358 3 82 -14 216 -55 299
-91 232 -101 478 -345 585 -580 147 -325 143 -715 -9 -1033 -69 -146 -136
-238 -256 -354 -110 -106 -202 -165 -342 -220 -148 -58 -171 -61 -602 -61
l-393 0 -34 34 c-60 60 -46 95 73 179 91 64 205 179 255 258 23 35 52 65 79
81 24 14 69 53 101 85 154 162 250 394 246 598 -1 74 -2 82 -8 45 -7 -43 -7
-44 -9 -10 -2 19 -5 29 -8 23 -3 -9 -35 -13 -109 -13 -82 0 -104 -3 -104 -14
0 -7 -9 -16 -20 -19 -19 -5 -20 -11 -16 -59 l5 -53 -10 49 c-7 34 -7 52 1 60
15 15 13 41 -3 28 -10 -9 -17 4 -31 61 -62 246 -238 518 -448 695 -207 173
-411 272 -641 312 -60 10 -109 20 -111 22 -1 1 -10 28 -20 58 -27 79 -150 317
-216 418 l-57 86 74 104 c41 57 77 111 80 120 4 10 15 28 25 41 21 27 24 46 6
35 -10 -6 -9 -3 0 8 10 13 11 22 3 37 -14 25 -14 34 -1 26 5 -3 7 0 4 8 -3 8
-15 17 -26 20 -13 4 -19 11 -15 21 3 8 2 16 -3 18 -11 4 -15 66 -6 106 4 18
11 30 16 27 5 -3 12 0 16 6 4 8 3 9 -4 5 -15 -9 -16 -10 9 59 25 71 23 160 -5
180 -15 11 -13 20 26 99 24 47 47 86 51 86 4 0 36 -14 70 -31z m1938 -86 c35
-18 80 -46 99 -63 l35 -31 -33 23 -33 23 -17 -23 c-15 -20 -29 -23 -122 -28
-142 -8 -159 -10 -205 -28 -22 -8 -55 -15 -72 -16 -34 0 -166 -48 -171 -61 -2
-4 -10 -5 -18 -2 -10 4 -22 -11 -39 -48 -13 -30 -24 -47 -24 -38 -2 33 72 161
120 210 90 89 172 120 315 116 90 -2 107 -6 165 -34z m-2853 -148 c-3 -3 -9 2
-12 12 -6 14 -5 15 5 6 7 -7 10 -15 7 -18z m72 -30 c0 -8 -4 -15 -10 -15 -5 0
-7 7 -4 15 4 8 8 15 10 15 2 0 4 -7 4 -15z m2570 -59 c133 -79 235 -151 238
-168 2 -11 -11 -26 -35 -41 -329 -208 -314 -203 -324 -96 -11 106 -10 309 1
330 16 28 37 24 120 -25z m-2475 4 c3 -6 -1 -7 -9 -4 -18 7 -21 14 -7 14 6 0
13 -4 16 -10z m3275 -70 c24 -24 25 -38 4 -68 -28 -40 -104 -18 -104 30 0 24
35 58 60 58 11 0 29 -9 40 -20z m-5622 -25 c17 -14 33 -39 37 -55 9 -39 -18
-88 -53 -97 -15 -4 -185 -7 -379 -8 l-351 0 -25 23 c-32 31 -41 67 -26 105 22
54 41 56 421 57 l346 0 30 -25z m-324 -385 l36 -40 0 -173 c0 -94 -5 -188 -10
-207 -24 -88 -131 -136 -203 -91 -110 68 -52 231 83 231 l40 0 0 160 c0 88 4
160 9 160 5 0 25 -18 45 -40z m342 -84 c-4 -16 -13 -26 -25 -26 -18 0 -18 2
-3 35 18 39 39 32 28 -9z m2460 -57 c199 -169 309 -387 319 -634 2 -55 2 -89
-1 -75 -2 14 -9 52 -15 85 -21 116 -82 241 -171 348 -22 26 -45 44 -50 40 -6
-3 -8 -1 -5 4 4 6 -2 18 -13 28 -11 10 -20 15 -20 10 0 -4 -7 -2 -15 5 -8 7
-13 16 -10 20 8 12 -33 43 -46 34 -7 -4 -10 -3 -5 4 3 6 -9 23 -29 38 -34 26
-35 28 -35 95 0 38 3 69 6 69 4 0 44 -32 90 -71z m3020 53 c19 -13 24 -42 12
-68 -10 -21 -17 -25 -47 -22 -28 2 -38 8 -45 30 -8 22 -6 32 9 48 18 20 51 26
71 12z m-6199 -78 c15 -24 15 -29 2 -53 -17 -31 -68 -41 -89 -16 -16 19 -16
60 0 80 20 25 67 19 87 -11z m3128 -84 c3 -5 1 -10 -4 -10 -6 0 -11 5 -11 10
0 6 2 10 4 10 3 0 8 -4 11 -10z m2516 -188 c32 -36 36 -60 15 -101 -23 -44
-53 -51 -220 -51 -205 0 -236 12 -236 94 0 87 25 97 243 93 l169 -2 29 -33z
m-3406 -4 c134 -22 319 -124 427 -235 55 -57 108 -127 108 -144 0 -5 -30 10
-67 33 -89 54 -213 110 -230 104 -7 -3 -13 -2 -13 3 0 9 -90 35 -97 28 -2 -3
18 -10 44 -17 26 -7 42 -15 35 -17 -6 -3 -10 -8 -8 -12 3 -4 -13 -15 -34 -25
-27 -12 -40 -24 -40 -37 0 -18 -44 -38 -57 -25 -3 3 -20 -3 -37 -13 -17 -10
-53 -21 -81 -25 -27 -3 -53 -13 -57 -21 -5 -8 -24 -17 -43 -21 -20 -3 -35 -12
-35 -20 0 -10 -12 -14 -39 -14 -22 0 -43 -4 -46 -10 -3 -5 -21 -10 -38 -10
-18 0 -44 -7 -59 -14 -16 -8 -28 -11 -28 -5 0 18 -17 9 -30 -16 -8 -15 -20
-23 -27 -20 -8 2 -11 0 -8 -5 4 -7 -8 -8 -34 -4 -23 4 -41 3 -41 -3 0 -8 -20
-13 -67 -17 -11 0 -19 -4 -16 -8 2 -5 -10 -9 -26 -9 -37 -2 -36 -2 -84 -18
-21 -7 -53 -11 -72 -9 -30 3 -35 0 -56 -39 -26 -47 -26 -47 -63 -33 -17 6 -26
6 -26 0 0 -6 9 -10 21 -10 15 0 20 -5 17 -22 -3 -23 -6 -24 -75 -27 -16 -1
-23 -7 -23 -22 0 -11 -4 -18 -9 -14 -5 3 -13 1 -16 -5 -4 -6 -15 -8 -26 -5
-11 4 -19 2 -19 -5 0 -6 4 -9 8 -6 12 7 36 -39 28 -52 -3 -5 -20 -12 -38 -14
-18 -3 -76 -17 -130 -32 -170 -46 -315 -144 -419 -283 -55 -74 -102 -72 -154
5 -20 29 -25 32 -26 17 0 -12 -3 -15 -6 -7 -4 10 -9 10 -23 -3 -10 -9 -20 -12
-24 -7 -10 16 96 134 174 192 135 100 281 149 463 157 107 5 117 7 117 25 0
30 50 216 72 267 53 124 206 303 332 390 193 133 442 183 701 139z m4111 -479
c17 -19 17 -23 3 -47 -21 -38 -62 -41 -85 -8 -15 24 -15 28 0 51 20 31 56 33
82 4z m-2380 -54 c173 -50 341 -144 462 -261 77 -74 87 -99 52 -134 -35 -35
-60 -25 -151 63 -48 46 -121 103 -167 131 -99 59 -246 116 -319 123 l-53 6 0
48 0 49 44 0 c24 0 84 -11 132 -25z m670 -540 c14 -21 14 -30 4 -55 -24 -59
-110 -43 -110 20 0 59 74 84 106 35z m-4662 -85 c21 -8 26 -16 26 -43 0 -38
-15 -57 -46 -57 -51 0 -73 66 -32 94 27 19 21 18 52 6z m390 -35 c-4 -8 -11
-15 -16 -15 -6 0 -5 6 2 15 7 8 14 15 16 15 2 0 1 -7 -2 -15z m3012 -136 c148
-26 351 -109 474 -192 64 -44 220 -197 220 -218 0 -25 -52 -44 -80 -29 -17 9
-13 -1 20 -50 58 -86 105 -191 135 -302 29 -110 29 -108 10 -108 -8 0 -15 8
-15 18 0 36 -68 210 -108 280 -24 39 -65 99 -93 132 -62 74 -166 163 -182 154
-7 -4 -9 -3 -4 1 4 5 -12 21 -35 37 -45 30 -64 36 -52 16 4 -7 3 -8 -5 -4 -6
4 -9 12 -6 17 4 5 0 10 -7 10 -7 1 -20 2 -28 3 -8 0 -18 -3 -22 -9 -5 -6 -12
-4 -18 5 -7 10 -12 12 -17 4 -5 -6 -37 -12 -72 -13 -35 -1 -67 -4 -72 -6 -11
-8 -4 -35 12 -47 11 -8 11 -9 -3 -4 -39 12 -15 -12 34 -35 119 -55 284 -205
263 -239 -3 -5 -31 -10 -61 -10 -36 0 -54 -4 -54 -12 -1 -7 -7 -2 -16 12 -14
23 -14 23 -9 3 5 -19 2 -23 -18 -23 -27 0 -79 -23 -116 -52 -20 -15 -27 -16
-40 -6 -14 12 -14 11 -1 -8 8 -12 29 -40 47 -64 103 -135 110 -370 17 -527
-128 -216 -403 -295 -628 -181 -55 28 -133 103 -177 171 -108 166 -86 426 50
579 24 27 37 49 31 53 -5 3 -10 0 -10 -7 0 -7 -7 -3 -15 9 -16 23 -62 36 -68
19 -2 -5 -14 0 -27 12 -13 12 -27 22 -31 22 -4 0 -15 3 -25 7 -10 4 -15 2 -11
-3 3 -5 -3 -10 -13 -10 -10 0 -16 4 -14 8 5 7 -26 13 -48 9 -5 0 -8 5 -8 12 0
8 -18 20 -40 27 -21 7 -37 17 -34 21 3 5 0 9 -5 9 -6 0 -11 -4 -11 -10 0 -5
-4 -10 -10 -10 -21 0 -9 18 20 30 17 7 33 17 36 22 8 12 -60 -16 -115 -49 -64
-37 -162 -140 -198 -209 -40 -75 -69 -171 -78 -257 l-7 -67 -76 0 -75 0 6 88
c15 210 98 395 241 538 113 113 305 216 365 196 23 -8 32 -3 76 42 84 84 281
169 455 195 82 13 278 13 346 0z m-2924 -16 c25 -22 24 -79 -1 -93 -43 -22
-91 -1 -91 41 0 22 42 69 61 69 7 0 21 -7 31 -17z m1956 -1561 c68 -36 115
-85 157 -164 105 -193 282 -291 525 -290 121 0 228 24 330 74 81 39 183 140
228 224 43 82 101 138 168 164 53 20 73 20 856 20 797 0 802 0 846 -21 141
-69 119 -264 -34 -299 -51 -12 -154 -13 -135 -1 11 7 10 11 -5 20 -11 6 -15
11 -11 11 5 0 -6 12 -25 28 -18 15 -34 30 -36 35 -2 4 -12 7 -23 7 -10 0 -19
4 -19 9 0 5 -15 15 -32 22 -48 20 -1185 20 -1241 0 -60 -21 -106 -68 -144
-149 -46 -96 -130 -189 -172 -189 -17 0 -28 3 -26 7 2 4 -19 7 -48 7 -29 0
-76 2 -105 5 -42 5 -54 3 -62 -11 -6 -10 -13 -12 -17 -6 -11 14 -91 17 -98 4
-5 -6 -11 -7 -19 0 -22 19 -356 12 -356 -8 0 -3 -39 -7 -88 -9 -51 -1 -89 -7
-91 -13 -2 -7 -6 -7 -12 2 -6 11 -18 11 -61 2 -36 -7 -57 -8 -65 -1 -9 7 -13
7 -13 -1 0 -6 -13 -2 -30 10 -16 12 -26 27 -23 32 3 6 1 7 -5 4 -17 -11 -92
82 -128 158 -42 91 -68 123 -118 146 -38 17 -76 19 -532 19 -470 0 -599 -4
-574 -20 7 -4 -1 -10 -18 -13 -36 -7 -69 -61 -51 -83 9 -11 7 -14 -7 -15 -14
-1 -13 -3 6 -9 15 -5 -39 -8 -135 -9 -148 -1 -164 1 -205 22 -33 16 -51 34
-68 67 -43 84 -11 174 80 219 43 21 43 21 818 19 l775 -3 43 -23z m-261 -541
c48 -22 63 -45 63 -95 0 -25 -9 -45 -29 -68 l-29 -33 -381 -3 c-425 -3 -429
-2 -457 63 -20 50 -18 71 15 107 29 33 31 33 138 39 59 3 227 6 373 7 241 1
269 0 307 -17z m2068 9 c45 -17 75 -58 75 -103 0 -33 -7 -46 -40 -79 -38 -39
-42 -40 -90 -36 -60 6 -96 34 -110 89 -25 91 69 165 165 129z m754 -29 c43
-40 44 -97 2 -143 l-29 -33 -145 -3 c-166 -4 -193 4 -222 63 -21 46 -14 79 27
117 l30 28 153 0 153 0 31 -29z"/>
<path d="M5695 6680 c3 -5 8 -10 11 -10 2 0 4 5 4 10 0 6 -5 10 -11 10 -5 0
-7 -4 -4 -10z"/>
<path d="M5061 4651 c-6 -21 -11 -48 -11 -59 0 -29 -45 -79 -77 -85 -15 -3
-38 -1 -52 5 -37 14 -69 2 -87 -33 -34 -66 11 -143 91 -154 93 -14 179 58 191
161 7 56 -12 164 -28 164 -5 0 -8 7 -5 15 4 8 2 17 -2 19 -4 3 -13 -12 -20
-33z"/>
<path d="M6132 3030 c0 -14 2 -19 5 -12 2 6 2 18 0 25 -3 6 -5 1 -5 -13z"/>
<path d="M6142 2970 c0 -14 2 -19 5 -12 2 6 2 18 0 25 -3 6 -5 1 -5 -13z"/>
<path d="M2307 3695 c-4 -8 -3 -16 1 -19 4 -3 9 4 9 15 2 23 -3 25 -10 4z"/>
<path d="M2090 3600 c0 -5 5 -10 11 -10 5 0 7 5 4 10 -3 6 -8 10 -11 10 -2 0
-4 -4 -4 -10z"/>
<path d="M2015 3485 c-4 -25 -5 -48 -2 -51 3 -3 9 15 12 41 4 25 5 48 2 51 -3
3 -9 -15 -12 -41z"/>
<path d="M4240 2626 c0 -2 7 -7 16 -10 8 -3 12 -2 9 4 -6 10 -25 14 -25 6z"/>
<path d="M3819 2103 c-10 -12 -15 -60 -17 -186 -2 -94 -1 -181 2 -193 13 -51
46 -41 189 55 75 50 138 95 142 101 14 22 -8 49 -78 95 -39 26 -102 70 -138
96 -73 54 -80 56 -100 32z"/>
<path d="M4203 873 c9 -2 25 -2 35 0 9 3 1 5 -18 5 -19 0 -27 -2 -17 -5z"/>
</g>
</svg>
